<svg width="380" height="380" xmlns="http://www.w3.org/2000/svg" xmlns:xlink="http://www.w3.org/1999/xlink" id="svg3857" overflow="hidden"><defs id="defs3859"></defs><g id="layer1" transform="translate(18.7447 -692.276)"><path d="M284.215 1022.76C281.852 1021.56 278.856 1019.17 277.557 1017.45 276.258 1015.73 274.691 1012.43 274.075 1010.12 273.458 1007.8 273.254 1004.65 273.621 1003.12 273.988 1001.58 276.207 995.8 278.551 990.266 280.895 984.732 284.86 973.844 287.363 966.072 289.866 958.3 293.051 946.553 294.441 939.968 295.831 933.383 297.703 922.221 298.6 915.162 299.627 907.088 300.232 894.911 300.232 882.329 300.232 869.887 299.626 857.565 298.628 849.723 297.747 842.791 296.119 832.666 295.012 827.223 293.905 821.781 291.612 812.379 289.918 806.329 288.223 800.279 283.851 787.904 280.201 778.829 275.286 766.606 273.577 761.139 273.608 757.738 273.635 754.767 274.453 751.85 275.925 749.467 277.177 747.442 279.765 744.592 281.678 743.133 284.135 741.259 286.734 740.35 290.537 740.035 293.497 739.789 297.076 739.879 298.49 740.234 299.904 740.589 302.808 742.458 304.943 744.386 307.758 746.929 310.091 750.785 313.433 758.415 315.967 764.203 319.808 774.061 321.967 780.322 324.126 786.584 327.452 797.922 329.359 805.518 331.265 813.114 333.755 824.954 334.893 831.829 336.03 838.704 337.417 849.729 337.975 856.329 338.534 862.929 338.99 874.629 338.99 882.329 338.99 890.029 338.534 901.729 337.975 908.329 337.417 914.929 336.034 925.954 334.901 932.829 333.769 939.704 331.125 952.079 329.026 960.329 326.927 968.579 323.093 981.179 320.506 988.329 317.919 995.479 313.937 1005.14 311.657 1009.8 308.853 1015.54 306.293 1019.24 303.746 1021.24 300.79 1023.57 298.747 1024.28 294.246 1024.57 289.811 1024.86 287.537 1024.45 284.215 1022.76ZM221.406 995.8C219.699 995.276 216.247 992.651 213.737 989.967 210.129 986.11 209.022 984.083 208.454 980.297 207.836 976.179 208.19 974.441 210.975 967.918 212.757 963.744 216.173 954.681 218.567 947.777 220.96 940.874 224.051 929.624 225.435 922.777 226.818 915.931 228.455 903.879 229.072 895.995 229.903 885.382 229.901 878.115 229.066 867.995 228.446 860.479 226.826 848.809 225.466 842.062 224.106 835.315 221.594 825.428 219.884 820.089 218.174 814.751 215.066 806.443 212.977 801.628 210.888 796.812 208.871 791.467 208.494 789.749 208.116 788.03 208.363 784.642 209.044 782.21 209.801 779.508 211.803 776.272 214.206 773.869 216.364 771.711 219.732 769.416 221.689 768.77 223.647 768.124 227.271 767.823 229.743 768.102 232.433 768.405 235.897 769.771 238.374 771.505 241.259 773.525 243.495 776.38 245.764 780.943 247.553 784.541 250.833 792.304 253.053 798.195 255.273 804.087 258.608 814.852 260.464 822.118 262.32 829.384 264.656 840.504 265.654 846.829 267.053 855.697 268.89 861.436 268.866 880.329 268.84 901.219 267.068 909.309 265.11 920.768 263.847 928.16 261.323 939.635 259.5 946.268 257.677 952.901 254.344 963.054 252.092 968.829 249.841 974.604 246.755 981.788 245.236 984.794 243.476 988.277 240.964 991.321 238.313 993.184 235.424 995.214 232.678 996.207 229.331 996.431 226.68 996.608 223.114 996.324 221.406 995.8ZM153.511 959.93C151.861 959.515 149.521 958.644 148.311 957.994 147.102 957.344 136.077 949.068 123.811 939.603 111.546 930.137 92.511 915.442 81.511 906.947 70.511 898.452 57.842 889.1 53.3576 886.165 48.8733 883.23 44.4858 880.829 43.6076 880.829 42.2915 880.829 42.0124 882.102 42.0189 888.079 42.0229 892.066 43.1483 900.719 44.5189 907.306 45.8895 913.894 47.011 922.415 47.011 926.241 47.011 931.249 46.4268 934.404 44.9251 937.506 43.7779 939.876 41.5069 942.763 39.8783 943.923 38.2498 945.083 35.2162 946.26 33.137 946.539 30.4952 946.893 28.1365 946.423 25.3056 944.979 23.0775 943.842 19.4147 940.822 17.1661 938.268 14.9175 935.713 12.1738 931.207 11.0691 928.255 9.96441 925.302 8.05045 918.261 6.81587 912.607 4.86402 903.67 3.50243 899.101 3.52036 879.971 3.53816 860.961 4.91889 856.902 6.86827 847.829 8.109 842.054 10.2497 834.855 11.6253 831.832 13.001 828.808 15.113 825.278 16.3187 823.987 17.5245 822.695 19.7261 821.006 21.2113 820.234 22.6965 819.461 25.2212 818.829 26.8218 818.829 28.4223 818.829 31.4336 819.983 33.5136 821.395 35.5935 822.806 49.2688 833.29 63.9031 844.691 78.5374 856.093 101.311 873.76 114.511 883.952 127.711 894.145 139.941 903.522 141.689 904.791 143.437 906.06 145.516 906.849 146.31 906.544 147.176 906.212 148.185 903.454 148.831 899.659 149.423 896.177 150.155 890.781 150.457 887.668 150.76 884.554 150.539 877.442 149.967 871.863 149.394 866.284 147.846 857.581 146.526 852.524 145.206 847.466 142.73 839.954 141.023 835.83 139.316 831.706 137.43 825.406 136.831 821.83 136.017 816.962 136.043 814.241 136.937 810.998 137.594 808.617 139.595 805.071 141.383 803.12 144.105 800.15 145.479 799.49 149.811 799.074 152.847 798.782 156.24 799.095 158.016 799.831 159.682 800.521 163.28 803.531 166.013 806.521 168.745 809.51 172.52 815.201 174.402 819.167 176.284 823.133 179.395 831.092 181.314 836.854 183.234 842.615 185.635 851.154 186.649 855.829 188.088 862.46 189.565 868.616 189.565 883.829 189.565 899.058 188.089 905.19 186.646 911.829 185.63 916.504 183.683 923.875 182.32 928.209 180.957 932.544 178.28 939.515 176.372 943.702 174.465 947.889 171.915 952.374 170.707 953.669 169.499 954.964 167.371 956.841 165.977 957.841 164.584 958.84 161.884 959.888 159.977 960.171 158.071 960.454 155.161 960.345 153.511 959.93Z" id="path3055"/></g></svg>